<svg width="200" height="40" viewBox="0 0 200 40" fill="none" xmlns="http://www.w3.org/2000/svg">
  <path d="M16 8H32V12H20V20H30V24H20V32H16V8Z" fill="currentColor"/>
  <path d="M40 8H44V32H40V8Z" fill="currentColor"/>
  <path d="M52 16C52 11.5817 55.5817 8 60 8C64.4183 8 68 11.5817 68 16V24C68 28.4183 64.4183 32 60 32C55.5817 32 52 28.4183 52 24V16ZM56 16V24C56 26.2091 57.7909 28 60 28C62.2091 28 64 26.2091 64 24V16C64 13.7909 62.2091 12 60 12C57.7909 12 56 13.7909 56 16Z" fill="currentColor"/>
  <path d="M76 8H80V24L88 8H92L82 24L92 32H88L80 24V32H76V8Z" fill="currentColor"/>
  <path d="M104 8H108V32H104V8Z" fill="currentColor"/>
  <path d="M116 16C116 11.5817 119.582 8 124 8C128.418 8 132 11.5817 132 16V24C132 28.4183 128.418 32 124 32C119.582 32 116 28.4183 116 16ZM120 16V24C120 26.2091 121.791 28 124 28C126.209 28 128 26.2091 128 24V16C128 13.7909 126.209 12 124 12C121.791 12 120 13.7909 120 16ZM128 24H132V32H128V24Z" fill="currentColor"/>
  <circle cx="160" cy="20" r="12" fill="#4F46E5"/>
  <path d="M156 16L164 24M164 16L156 24" stroke="white" stroke-width="2" stroke-linecap="round"/>
</svg>